<?xml version="1.0" encoding="UTF-8" standalone="no"?>
<!-- Created with Inkscape (http://www.inkscape.org/) -->

<svg
   width="100pt"
   height="100pt"
   viewBox="0 0 35.277779 35.277779"
   version="1.1"
   id="svg5"
   inkscape:version="1.1.2 (b8e25be833, 2022-02-05)"
   sodipodi:docname="logentry.svg"
   xmlns:inkscape="http://www.inkscape.org/namespaces/inkscape"
   xmlns:sodipodi="http://sodipodi.sourceforge.net/DTD/sodipodi-0.dtd"
   xmlns="http://www.w3.org/2000/svg"
   xmlns:svg="http://www.w3.org/2000/svg">
  <sodipodi:namedview
     id="namedview7"
     pagecolor="#505050"
     bordercolor="#ffffff"
     borderopacity="1"
     inkscape:pageshadow="0"
     inkscape:pageopacity="0"
     inkscape:pagecheckerboard="1"
     inkscape:document-units="mm"
     showgrid="false"
     showguides="false"
     inkscape:zoom="3.754372"
     inkscape:cx="55.80161"
     inkscape:cy="73.247937"
     inkscape:window-width="2560"
     inkscape:window-height="1377"
     inkscape:window-x="-8"
     inkscape:window-y="-8"
     inkscape:window-maximized="1"
     inkscape:current-layer="layer1"
     units="pt"
     width="100pt" />
  <defs
     id="defs2" />
  <g
     inkscape:label="Layer 1"
     inkscape:groupmode="layer"
     id="layer1">
    <path
       style="fill:#f0f0f0;stroke-width:0.0675562;fill-opacity:1"
       d="M 1.0656032,33.152718 C 0.6035181,33.01444 0.28811045,32.468754 0.37777248,31.962706 0.41881691,31.731063 0.72350324,31.405845 3.1845326,28.966826 5.7171772,26.456829 5.9623663,26.193905 6.1524218,25.784255 6.3571232,25.343034 6.5060856,24.621302 6.4584767,24.301394 6.4449952,24.21073 6.3830775,23.836666 6.3209069,23.470136 6.0526666,21.888745 6.4934622,20.404225 7.5848513,19.213392 7.9374197,18.828701 24.774799,3.8042395 25.851714,2.9133656 c 0.411977,-0.3408087 1.0222,-0.6498053 1.520014,-0.7696846 0.545108,-0.1312687 1.434027,-0.1027034 1.960164,0.06299 0.897976,0.2827938 1.179598,0.516084 3.033684,2.5130271 0.944553,1.0173305 1.834212,2.0304701 1.977018,2.2514214 0.822224,1.2721394 0.75194,3.0835805 -0.16502,4.2531085 -0.443159,0.565223 -15.301659,16.792287 -16.156471,17.644586 -0.739716,0.737545 -0.974796,0.928263 -1.439011,1.167476 -1.065927,0.549275 -2.189108,0.690506 -3.514269,0.44189 -0.518626,-0.0973 -0.70511,-0.104434 -1.106431,-0.04231 -0.851642,0.13182 -1.229724,0.375431 -2.4890541,1.603777 -0.9715952,0.947687 -1.1562675,1.098863 -1.3893468,1.137349 -0.3993165,0.06594 -6.789809,0.04382 -7.0173879,-0.02428 z M 7.7663375,30.90651 c 0.1563618,-0.159318 0.284293,-0.319358 0.284293,-0.355645 0,-0.03628 -0.3953723,-0.460466 -0.8786041,-0.942627 L 6.2934232,28.731584 5.0611224,29.963882 3.8288243,31.196183 h 1.8266114 1.8266111 z m 2.3994155,-2.000831 c 1.093358,-0.521268 2.010206,-0.636537 3.297732,-0.414599 0.737274,0.127089 0.91117,0.136424 1.283572,0.0689 0.446812,-0.08101 0.983037,-0.306695 1.275215,-0.536707 l 0.16889,-0.13296 -3.601413,-3.599565 -3.601416,-3.599571 -0.199551,0.235002 c -0.4548724,0.535683 -0.6302177,1.482729 -0.4425477,2.390211 0.2441432,1.180544 0.093131,2.408922 -0.4205781,3.421074 l -0.257156,0.506671 0.9501983,0.962676 c 0.5226109,0.529474 0.9599876,0.962679 0.9719526,0.962679 0.011979,0 0.2707576,-0.118719 0.5751019,-0.263816 z M 25.176189,18.124042 c 4.075356,-4.458714 7.474653,-8.2283549 7.553991,-8.3769787 0.198413,-0.3716787 0.203463,-1.1730892 0.0096,-1.5363 C 32.66568,8.0717612 31.883398,7.1721165 31.00143,6.2115526 29.163182,4.2094886 28.994243,4.0788812 28.242345,4.0785146 27.89737,4.0783455 27.724634,4.1160826 27.48388,4.2442069 27.312415,4.3354579 23.414773,7.7518293 18.822452,11.836142 l -8.349675,7.426025 3.567198,3.567672 c 2.785857,2.78623 3.584638,3.549415 3.646824,3.484314 0.0438,-0.04584 3.414011,-3.731397 7.48937,-8.190111 z m -6.747611,15.029796 c -0.232006,-0.07048 -0.49154,-0.300836 -0.622483,-0.552507 -0.211014,-0.405558 -0.04194,-0.975881 0.37108,-1.251802 l 0.229547,-0.153346 h 5.130967 c 5.672948,0 5.444445,-0.01716 5.718878,0.429418 0.313166,0.509602 0.167165,1.138885 -0.331043,1.426833 -0.231034,0.13353 -0.351724,0.136933 -5.269391,0.148592 -2.76812,0.0065 -5.120521,-0.01467 -5.227555,-0.04719 z"
       id="path890" />
  </g>
</svg>
