<?xml version="1.0" encoding="UTF-8" standalone="no"?>
<!-- Created with Inkscape (http://www.inkscape.org/) -->

<svg
   width="100pt"
   height="100pt"
   viewBox="0 0 35.277779 35.277779"
   version="1.1"
   id="svg5"
   inkscape:version="1.1.2 (b8e25be833, 2022-02-05)"
   sodipodi:docname="logentryAction.svg"
   xmlns:inkscape="http://www.inkscape.org/namespaces/inkscape"
   xmlns:sodipodi="http://sodipodi.sourceforge.net/DTD/sodipodi-0.dtd"
   xmlns="http://www.w3.org/2000/svg"
   xmlns:svg="http://www.w3.org/2000/svg">
  <sodipodi:namedview
     id="namedview7"
     pagecolor="#505050"
     bordercolor="#ffffff"
     borderopacity="1"
     inkscape:pageshadow="0"
     inkscape:pageopacity="0"
     inkscape:pagecheckerboard="1"
     inkscape:document-units="mm"
     showgrid="false"
     showguides="false"
     inkscape:zoom="3.754372"
     inkscape:cx="55.801609"
     inkscape:cy="73.247936"
     inkscape:window-width="2560"
     inkscape:window-height="1377"
     inkscape:window-x="-8"
     inkscape:window-y="-8"
     inkscape:window-maximized="1"
     inkscape:current-layer="layer1"
     units="pt"
     width="100pt" />
  <defs
     id="defs2" />
  <g
     inkscape:label="Layer 1"
     inkscape:groupmode="layer"
     id="layer1">
    <path
       style="fill:#f0f0f0;fill-opacity:1;stroke-width:0.06058"
       d="M 2.7770462,31.550678 C 2.3626784,31.426679 2.0798413,30.937343 2.1602444,30.483553 2.1970504,30.27583 2.4702732,29.984196 4.677164,27.797043 6.9482746,25.546241 7.1681442,25.310467 7.3385736,24.94312 7.5221365,24.547463 7.6557163,23.90026 7.6130237,23.613387 7.6009344,23.532086 7.5454106,23.19665 7.4896601,22.867969 7.2491197,21.449881 7.6443964,20.11866 8.623083,19.050799 8.9392433,18.705833 24.037908,5.232875 25.003615,4.4339973 c 0.369434,-0.305615 0.916642,-0.582703 1.363049,-0.6902029 0.488818,-0.1177133 1.285942,-0.092098 1.757747,0.056485 0.805247,0.253591 1.057787,0.4627905 2.72041,2.2535189 0.847014,0.9122757 1.644803,1.8207932 1.772862,2.018928 0.737317,1.1407717 0.67429,2.7651547 -0.147979,3.8139107 -0.397397,0.506856 -13.721532,15.058228 -14.488071,15.822515 -0.663329,0.661382 -0.874133,0.832406 -1.290411,1.046917 -0.955854,0.492553 -1.963049,0.6192 -3.151367,0.396257 -0.465071,-0.08725 -0.632297,-0.09365 -0.992176,-0.03794 -0.763697,0.118208 -1.102736,0.336661 -2.232021,1.438162 -0.8712633,0.849824 -1.0368653,0.985389 -1.2458757,1.0199 -0.358081,0.05914 -6.0886582,0.03929 -6.2927361,-0.02177 z m 6.0087819,-2.014253 c 0.140215,-0.142866 0.2549354,-0.28638 0.2549354,-0.318919 0,-0.03253 -0.3545442,-0.412916 -0.787875,-0.845286 l -0.787874,-0.786127 -1.105047,1.105045 -1.1050447,1.105047 h 1.637986 1.6379858 z M 10.937467,27.74221 c 0.980452,-0.467439 1.802622,-0.570805 2.957191,-0.371785 0.66114,0.113965 0.817078,0.122336 1.151024,0.06178 0.400672,-0.07264 0.881524,-0.275024 1.143529,-0.481284 l 0.15145,-0.11923 -3.229512,-3.227855 -3.229515,-3.227861 -0.1789444,0.210735 c -0.4078999,0.480366 -0.5651382,1.329615 -0.3968479,2.143386 0.2189317,1.058634 0.083514,2.160164 -0.3771471,3.067796 l -0.2306007,0.454349 0.8520759,0.863265 c 0.4686432,0.474798 0.8608552,0.863268 0.8715842,0.863268 0.01075,0 0.242797,-0.10646 0.515713,-0.236573 z m 13.460381,-9.66827 c 3.654514,-3.998284 6.702782,-7.378652 6.773926,-7.511927 0.177924,-0.333298 0.182453,-1.0519508 0.0086,-1.3776546 C 31.113936,9.0597103 30.412436,8.2529676 29.621544,7.3915965 27.973123,5.596276 27.82163,5.4791557 27.147377,5.478827 c -0.309352,-1.516e-4 -0.46425,0.033688 -0.680142,0.1485821 -0.153759,0.081828 -3.64891,3.1454072 -7.767004,6.8079529 l -7.487445,6.659175 3.198831,3.199255 c 2.498175,2.49851 3.21447,3.182885 3.270234,3.124507 0.03927,-0.0411 3.061463,-3.346075 6.715979,-7.344359 z m -6.050817,13.477742 c -0.208049,-0.0632 -0.440782,-0.26977 -0.558203,-0.495452 -0.189224,-0.363678 -0.03761,-0.875107 0.33276,-1.122534 l 0.205844,-0.137511 h 4.601116 c 5.08713,0 4.882223,-0.01538 5.128317,0.385074 0.280826,0.456978 0.149902,1.021278 -0.296858,1.27949 -0.207176,0.119742 -0.315403,0.122793 -4.725247,0.133248 -2.482269,0.0058 -4.591749,-0.01315 -4.687729,-0.04232 z"
       id="path890" />
  </g>
</svg>
