<?xml version="1.0" encoding="UTF-8" standalone="no"?>
<!-- Created with Inkscape (http://www.inkscape.org/) -->

<svg
   width="100pt"
   height="100pt"
   viewBox="0 0 35.277779 35.277777"
   version="1.1"
   id="svg5"
   inkscape:version="1.1.2 (b8e25be833, 2022-02-05)"
   sodipodi:docname="newlogAction.svg"
   xmlns:inkscape="http://www.inkscape.org/namespaces/inkscape"
   xmlns:sodipodi="http://sodipodi.sourceforge.net/DTD/sodipodi-0.dtd"
   xmlns="http://www.w3.org/2000/svg"
   xmlns:svg="http://www.w3.org/2000/svg">
  <sodipodi:namedview
     id="namedview7"
     pagecolor="#505050"
     bordercolor="#ffffff"
     borderopacity="1"
     inkscape:pageshadow="0"
     inkscape:pageopacity="0"
     inkscape:pagecheckerboard="1"
     inkscape:document-units="mm"
     showgrid="false"
     inkscape:zoom="3.754372"
     inkscape:cx="78.708237"
     inkscape:cy="58.598349"
     inkscape:window-width="2560"
     inkscape:window-height="1377"
     inkscape:window-x="-8"
     inkscape:window-y="-8"
     inkscape:window-maximized="1"
     inkscape:current-layer="layer1"
     units="pt" />
  <defs
     id="defs2" />
  <g
     inkscape:label="Layer 1"
     inkscape:groupmode="layer"
     id="layer1">
    <path
       style="fill:#f0f0f0;fill-opacity:1;stroke-width:0.0615305"
       d="m 24.054314,33.363552 c -2.975978,-0.351774 -5.486688,-2.082828 -6.798284,-4.687205 -0.31448,-0.624442 -0.5923,-1.426792 -0.750552,-2.167598 -0.1584,-0.741508 -0.156205,-2.584513 0.0039,-3.320999 0.740155,-3.403508 3.282246,-5.945422 6.68345,-6.682989 0.724596,-0.157132 2.172333,-0.185156 2.984236,-0.05777 3.516789,0.551798 6.284837,3.194778 7.057997,6.739101 0.173349,0.794676 0.187666,2.426759 0.02826,3.222604 -0.355582,1.775327 -1.122142,3.217587 -2.376399,4.471121 -1.603189,1.602269 -3.540825,2.435826 -5.786647,2.489379 -0.456867,0.01088 -0.927577,0.0083 -1.046023,-0.0056 z M 25.938321,31.3373 c 1.402297,-0.240965 2.565633,-0.841729 3.564836,-1.840932 1.335199,-1.335196 2.012743,-3.087434 1.91527,-4.953178 -0.162342,-3.107307 -2.462043,-5.66639 -5.534409,-6.15863 -0.645871,-0.103477 -2.026002,-0.04373 -2.598836,0.112511 -2.403875,0.655651 -4.15972,2.410249 -4.777742,4.77435 -0.165928,0.634721 -0.223554,1.935019 -0.115612,2.608767 0.322713,2.014344 1.577945,3.783542 3.385855,4.772221 0.497326,0.271971 1.561103,0.631364 2.09204,0.706786 0.62896,0.08936 1.473217,0.08041 2.068598,-0.0219 z m -1.497937,-2.000419 c -0.144881,-0.07364 -0.321963,-0.231801 -0.399949,-0.35721 -0.133654,-0.214933 -0.140821,-0.290756 -0.159354,-1.686405 l -0.01942,-1.46135 H 22.4444 c -1.568862,0 -1.716705,-0.0291 -1.972361,-0.388129 -0.205203,-0.288182 -0.223499,-0.812176 -0.03789,-1.085282 0.296414,-0.436149 0.405304,-0.462502 2.000926,-0.484244 l 1.426532,-0.01944 0.01944,-1.426532 c 0.02175,-1.595625 0.0481,-1.704515 0.484243,-2.000928 0.273106,-0.185604 0.797101,-0.167307 1.085281,0.0379 0.359037,0.255655 0.38813,0.403498 0.38813,1.972361 v 1.417262 l 1.461352,0.01941 c 1.398215,0.01858 1.471132,0.02549 1.687725,0.16017 0.452079,0.281112 0.608722,0.961149 0.312725,1.357609 -0.30025,0.402148 -0.318329,0.406241 -1.943251,0.439844 l -1.487787,0.03077 -0.03075,1.487788 c -0.02854,1.380096 -0.03995,1.500072 -0.15763,1.657525 -0.324908,0.434711 -0.789957,0.557989 -1.240691,0.328888 z M 4.7337029,29.366806 C 4.0813001,29.225237 3.4767715,28.88845 2.9826118,28.391262 2.4795035,27.885071 2.1971216,27.391793 2.0248436,26.718199 1.9061165,26.253975 1.9032932,25.997764 1.9032932,15.679362 1.9032932,5.3609609 1.9061074,5.1047523 2.0248436,4.6405257 2.0916967,4.3791342 2.236919,3.9939843 2.3475624,3.7846371 2.6339374,3.2427837 3.3045331,2.5888766 3.8575782,2.3121989 4.7405285,1.8704769 4.2737779,1.8904588 13.255692,1.9098602 l 8.06051,0.017411 0.454147,0.165843 c 1.124105,0.4104946 1.930704,1.2612575 2.322068,2.4492079 0.102459,0.3110092 0.113156,0.6858022 0.13207,4.6275378 0.01379,2.8749441 -6.97e-4,4.3684921 -0.04424,4.5298501 -0.223402,0.829647 -1.243423,1.039483 -1.750064,0.360018 C 22.302099,13.887944 22.300361,13.838593 22.269929,9.5064629 22.239875,5.2283957 22.236182,5.1204278 22.110676,4.8492844 21.955893,4.5148901 21.668646,4.2164031 21.324476,4.032318 L 21.07008,3.8962507 13.166651,3.8799508 C 4.221934,3.8615045 4.8908577,3.8255317 4.3630146,4.3533741 3.8292087,4.8871792 3.8722735,3.8932864 3.8722735,15.679362 c 0,11.750375 -0.040132,10.792495 0.4737017,11.306329 0.5062176,0.506215 0.1558757,0.472992 5.3518614,0.50755 4.5516374,0.03027 4.6284354,0.0328 4.7955854,0.157627 0.322861,0.241122 0.423597,0.437757 0.423597,0.826862 0,0.389117 -0.100747,0.585764 -0.423619,0.826862 -0.167719,0.125239 -0.228656,0.127005 -4.7648197,0.137932 -3.7562574,0.0091 -4.6679283,-0.0048 -4.9948774,-0.07572 z M 6.4060806,19.514572 C 6.2937138,19.458798 6.12758,19.315889 6.0368969,19.196998 5.9022234,19.020431 5.8720189,18.915963 5.8720189,18.62675 c 0,-0.38255 0.1023923,-0.580931 0.4236461,-0.820779 0.167499,-0.125057 0.2263266,-0.126864 4.129617,-0.126864 3.921333,0 3.961385,0.0012 4.133424,0.12872 0.604118,0.447621 0.604135,1.202308 3.6e-5,1.650011 -0.171406,0.12703 -0.224666,0.128911 -4.06102,0.143429 -3.5057103,0.01327 -3.9073938,0.0048 -4.0916414,-0.08669 z M 6.5374868,14.31942 C 5.911235,14.138217 5.6485134,13.283639 6.0663873,12.787024 6.3966272,12.394559 5.9468207,12.41824 13.0711,12.41824 c 7.081719,0 6.691339,-0.01931 6.978082,0.345222 0.182072,0.231469 0.257421,0.562692 0.192622,0.84676 -0.06762,0.296427 -0.388247,0.635647 -0.676497,0.715726 -0.283304,0.0787 -12.7548476,0.07245 -13.0278202,-0.0065 z M 6.3328718,8.9571439 C 5.8881118,8.6544419 5.7499081,8.2449752 5.9317697,7.7687736 6.0070134,7.5717538 6.1126407,7.4400997 6.2892209,7.3232437 L 6.5398681,7.1573732 h 3.2348517 3.2348482 l 0.226376,0.1407642 c 0.303807,0.1889138 0.508277,0.6090358 0.462504,0.9503032 -0.03927,0.2927874 -0.186931,0.5140773 -0.472895,0.7087033 l -0.203417,0.138443 H 9.7792123 6.5362891 Z"
       id="path872" />
  </g>
</svg>
