<?xml version="1.0" encoding="UTF-8" standalone="no"?>
<!-- Created with Inkscape (http://www.inkscape.org/) -->

<svg
   width="100pt"
   height="100pt"
   viewBox="0 0 35.277779 35.277777"
   version="1.1"
   id="svg5"
   inkscape:version="1.1.2 (b8e25be833, 2022-02-05)"
   sodipodi:docname="newlog.svg"
   xmlns:inkscape="http://www.inkscape.org/namespaces/inkscape"
   xmlns:sodipodi="http://sodipodi.sourceforge.net/DTD/sodipodi-0.dtd"
   xmlns="http://www.w3.org/2000/svg"
   xmlns:svg="http://www.w3.org/2000/svg">
  <sodipodi:namedview
     id="namedview7"
     pagecolor="#505050"
     bordercolor="#ffffff"
     borderopacity="1"
     inkscape:pageshadow="0"
     inkscape:pageopacity="0"
     inkscape:pagecheckerboard="1"
     inkscape:document-units="mm"
     showgrid="false"
     inkscape:zoom="3.754372"
     inkscape:cx="78.708237"
     inkscape:cy="58.598349"
     inkscape:window-width="2560"
     inkscape:window-height="1377"
     inkscape:window-x="-8"
     inkscape:window-y="-8"
     inkscape:window-maximized="1"
     inkscape:current-layer="layer1"
     units="pt" />
  <defs
     id="defs2" />
  <g
     inkscape:label="Layer 1"
     inkscape:groupmode="layer"
     id="layer1">
    <path
       style="fill:#f0f0f0;stroke-width:0.0671239;fill-opacity:1"
       d="m 24.637477,34.792973 c -3.246506,-0.383752 -5.985448,-2.272165 -7.416273,-5.113289 -0.343068,-0.681206 -0.646142,-1.556493 -0.81878,-2.364641 -0.172799,-0.808914 -0.170405,-2.819455 0.0043,-3.62289 0.807438,-3.712899 3.580614,-6.485882 7.291,-7.290497 0.790464,-0.171416 2.369806,-0.201987 3.255514,-0.06302 3.836478,0.601958 6.856151,3.485195 7.699594,7.35171 0.189108,0.866914 0.204726,2.64736 0.03083,3.51555 -0.387905,1.936711 -1.224148,3.510077 -2.592422,4.877562 -1.748924,1.747921 -3.862699,2.657252 -6.312674,2.715673 -0.498398,0.01187 -1.011897,0.0091 -1.14111,-0.0061 z m 2.05527,-2.210446 c 1.52977,-0.26287 2.798858,-0.918245 3.888892,-2.00828 1.456573,-1.45657 2.195709,-3.368092 2.089375,-5.403439 -0.177099,-3.389773 -2.685852,-6.181486 -6.037507,-6.718472 -0.704583,-0.112884 -2.210173,-0.04771 -2.835079,0.122738 -2.622396,0.715252 -4.537854,2.62935 -5.212056,5.208356 -0.181012,0.69242 -0.243876,2.110919 -0.126122,2.845914 0.352049,2.197455 1.721386,4.127479 3.693641,5.206033 0.542535,0.296694 1.703013,0.688757 2.282214,0.771035 0.686135,0.09748 1.607138,0.08772 2.256642,-0.02389 z M 25.058642,30.400262 C 24.90059,30.319932 24.707411,30.14739 24.622336,30.010581 24.476532,29.77611 24.468714,29.693394 24.448496,28.170875 l -0.02118,-1.594192 h -1.546095 c -1.711477,0 -1.87276,-0.03174 -2.151656,-0.423411 -0.223857,-0.314379 -0.243816,-0.886006 -0.04134,-1.183938 0.323359,-0.475797 0.442148,-0.504545 2.182818,-0.528263 l 1.556209,-0.02121 0.02121,-1.556209 c 0.02373,-1.740673 0.05247,-1.859461 0.528263,-2.182819 0.297932,-0.202476 0.86956,-0.182516 1.183937,0.04134 0.391674,0.278896 0.423412,0.440178 0.423412,2.151656 v 1.546096 l 1.594194,0.02118 c 1.525318,0.02027 1.604863,0.02781 1.841146,0.174731 0.493174,0.306666 0.664057,1.04852 0.341152,1.48102 -0.327543,0.438705 -0.347266,0.44317 -2.119899,0.479827 l -1.623032,0.03357 -0.03355,1.623033 c -0.03113,1.505552 -0.04358,1.636434 -0.171959,1.8082 -0.354443,0.474228 -0.861767,0.608712 -1.353474,0.358785 z M 3.5605517,30.432908 C 2.8488431,30.27847 2.1893607,29.911068 1.6502801,29.368683 1.1014374,28.816478 0.79338595,28.278359 0.60544728,27.543533 0.4759274,27.037109 0.47284752,26.757608 0.47284752,15.501226 c 0,-11.2563815 0.00307,-11.5358804 0.13259976,-12.0423069 C 0.67837756,3.1737661 0.83680114,2.7536047 0.95750242,2.5252271 1.2699099,1.9341173 2.0014652,1.2207677 2.6047841,0.91893893 3.5679978,0.43706283 3.0588179,0.45886115 12.857221,0.48002617 l 8.793239,0.0189934 0.495431,0.18091879 c 1.22629,0.44781004 2.106212,1.37591034 2.533152,2.67184974 0.111773,0.3392811 0.123443,0.7481441 0.144076,5.0481981 0.01504,3.1362868 -7.6e-4,4.7656038 -0.04826,4.9416298 -0.24371,0.905065 -1.356454,1.133976 -1.909151,0.392745 -0.139729,-0.1874 -0.141625,-0.241237 -0.174824,-4.9671733 C 22.658098,4.1002286 22.65407,3.982446 22.517155,3.6866547 22.348301,3.3218627 22.034943,2.9962422 21.659486,2.7954231 L 21.381965,2.6469868 12.760086,2.6292052 C 3.0022612,2.609082 3.7319925,2.5698392 3.1561665,3.1456644 2.5738357,3.7279943 2.6208153,2.643753 2.6208153,15.501226 c 0,12.818526 -0.04378,11.773571 0.5167628,12.334115 0.5522347,0.552232 0.1700454,0.515989 5.8383651,0.553688 4.9653978,0.03302 5.0491768,0.03578 5.2315218,0.171956 0.35221,0.263041 0.462103,0.477551 0.462103,0.902027 0,0.424489 -0.109905,0.639012 -0.462127,0.902026 -0.182966,0.136624 -0.249442,0.13855 -5.1979594,0.150471 -4.0977148,0.0099 -5.0922599,-0.0052 -5.4489299,-0.0826 z M 5.3849546,19.68507 C 5.2623733,19.624226 5.0811373,19.468326 4.9822108,19.338627 4.8352949,19.14601 4.8023448,19.032045 4.8023448,18.716542 c 0,-0.417325 0.1117001,-0.63374 0.462157,-0.895391 0.1827253,-0.136425 0.2469005,-0.138396 4.5050147,-0.138396 4.2777965,0 4.3214885,0.0013 4.5091665,0.140421 0.659035,0.488311 0.659053,1.311602 4e-5,1.800003 -0.186988,0.138577 -0.245089,0.140629 -4.430182,0.156467 -3.824392,0.01448 -4.26259,0.0052 -4.4635864,-0.09457 z M 5.5283061,14.01766 C 4.8451257,13.819985 4.5585218,12.887723 5.014382,12.345964 c 0.3602598,-0.428142 -0.1304357,-0.402308 7.641467,-0.402308 7.725472,0 7.299605,-0.02107 7.612414,0.376604 0.198624,0.25251 0.280822,0.613842 0.210132,0.923733 -0.07377,0.323374 -0.42354,0.69343 -0.737992,0.780788 -0.309058,0.08586 -13.9143101,0.07904 -14.2120969,-0.0071 z M 5.3050908,8.1679331 C 4.8199006,7.8377146 4.6691336,7.3910261 4.8675271,6.8715361 4.9496107,6.6566064 5.0648399,6.5129845 5.2574719,6.3855059 l 0.273432,-0.1809488 h 3.5289114 3.5289077 l 0.246954,0.1535602 c 0.331425,0.2060868 0.554482,0.6643994 0.504548,1.0366892 -0.04284,0.3194029 -0.203924,0.5608087 -0.515883,0.7731266 L 12.602433,8.3189618 H 9.0647162 5.5269995 Z"
       id="path872" />
  </g>
</svg>
