<?xml version="1.0" encoding="UTF-8" standalone="no"?>
<!-- Created with Inkscape (http://www.inkscape.org/) -->

<svg
   width="100pt"
   height="100pt"
   viewBox="0 0 35.277779 35.277777"
   version="1.1"
   id="svg5"
   inkscape:version="1.1.2 (b8e25be833, 2022-02-05)"
   sodipodi:docname="viewlog.svg"
   xmlns:inkscape="http://www.inkscape.org/namespaces/inkscape"
   xmlns:sodipodi="http://sodipodi.sourceforge.net/DTD/sodipodi-0.dtd"
   xmlns="http://www.w3.org/2000/svg"
   xmlns:svg="http://www.w3.org/2000/svg">
  <sodipodi:namedview
     id="namedview7"
     pagecolor="#505050"
     bordercolor="#ffffff"
     borderopacity="1"
     inkscape:pageshadow="0"
     inkscape:pageopacity="0"
     inkscape:pagecheckerboard="1"
     inkscape:document-units="mm"
     showgrid="false"
     inkscape:zoom="1.327371"
     inkscape:cx="-120.9157"
     inkscape:cy="71.570043"
     inkscape:window-width="2560"
     inkscape:window-height="1377"
     inkscape:window-x="-8"
     inkscape:window-y="-8"
     inkscape:window-maximized="1"
     inkscape:current-layer="layer1"
     units="pt" />
  <defs
     id="defs2" />
  <g
     inkscape:label="Layer 1"
     inkscape:groupmode="layer"
     id="layer1">
    <path
       style="fill:#f0f0f0;fill-opacity:1;stroke-width:0.0719989"
       d="M 7.8885163,33.661977 C 7.1251181,33.496322 6.4177391,33.102237 5.8395066,32.520461 5.2508029,31.92815 4.9203784,31.350949 4.7187902,30.562754 4.5798637,30.019551 4.57656,29.719749 4.57656,17.645844 4.57656,5.571941 4.579853,5.2721428 4.7187902,4.7289359 4.7970172,4.4230731 4.9669466,3.9723964 5.0964141,3.7274323 5.431511,3.0933916 6.2161973,2.3282332 6.8633337,2.0044835 7.8965031,1.4876099 7.3503429,1.5109915 17.860379,1.5336937 c 0,0 9.24049,0.020373 9.43187,0.020373 0.19138,0 0.615099,0.1544172 0.615099,0.1544172 1.315352,0.4803333 2.175494,1.5154805 2.633442,2.9055407 0.119891,0.3639221 0.132407,0.8024798 0.154539,5.4148364 0.01614,3.364067 -8.15e-4,22.593927 -0.05177,22.782737 -0.26141,0.970798 -1.784824,0.865144 -2.047808,-0.05361 C 28.526751,32.51693 28.443843,15.491902 28.408233,10.422733 28.373069,5.4168221 28.368748,5.2904853 28.221889,4.9732114 28.040772,4.5819255 27.704655,4.232656 27.301931,4.0172519 L 27.004254,3.858035 17.756189,3.838962 C 7.2896786,3.8173774 8.0724084,3.7752844 7.4547616,4.3929303 6.8301377,5.0175533 6.8805292,3.8545665 6.8805292,17.645844 c 0,13.749504 -0.04696,12.628657 0.554294,13.229912 0.5923421,0.592339 0.1823954,0.553463 6.2623918,0.593901 5.326021,0.03543 13.66221,0.03838 13.857798,0.184444 0.37779,0.282146 0.495664,0.512234 0.495664,0.967539 0,0.455319 -0.117887,0.685422 -0.49569,0.967538 -0.196254,0.146547 -8.513883,0.148613 -13.821799,0.161399 -4.3953214,0.01064 -5.4620977,-0.0057 -5.8446717,-0.0886 z M 9.8454209,22.133552 C 9.7139368,22.068288 9.5195381,21.901066 9.4134268,21.761947 9.2558409,21.555341 9.2204976,21.433099 9.2204976,21.094682 c 0,-0.447636 0.1198126,-0.679768 0.4957224,-0.960421 0.1959957,-0.146334 0.2648317,-0.148448 4.832202,-0.148448 4.588482,0 4.635348,0.0014 4.836656,0.15062 0.706899,0.523776 0.706919,1.40686 4.2e-5,1.930732 -0.200567,0.148643 -0.262888,0.150843 -4.751934,0.167831 -4.102148,0.01553 -4.572171,0.0057 -4.7877651,-0.101433 z m 0.1537628,-6.07902 C 9.2663857,15.8425 8.9589664,14.84253 9.4479346,14.261425 c 0.386425,-0.459237 -0.1399089,-0.431527 8.1964464,-0.431527 8.286555,0 7.829758,-0.0226 8.165286,0.403955 0.213048,0.270851 0.301217,0.658425 0.225393,0.990822 -0.07913,0.346859 -0.4543,0.743793 -0.791591,0.837495 -0.331504,0.09209 -14.924871,0.08477 -15.2442853,-0.0076 z M 9.7597568,9.7799546 C 9.2393285,9.4257524 9.0776118,8.9466219 9.2904141,8.3894025 9.3784591,8.1588632 9.5020571,8.0048104 9.7086795,7.8680733 L 10.00197,7.6739826 h 3.785208 3.785203 l 0.26489,0.1647129 c 0.355494,0.2210543 0.594751,0.712653 0.541191,1.1119813 -0.04595,0.3426003 -0.218734,0.6015388 -0.55335,0.8292778 l -0.238025,0.161996 H 13.792434 9.9977823 Z"
       id="path872"
       sodipodi:nodetypes="ssssccsszssscsssscssssscsscsccsssscsscccsssssccssscccsssccc" />
  </g>
</svg>
