<?xml version="1.0" encoding="UTF-8" standalone="no"?>
<!-- Created with Inkscape (http://www.inkscape.org/) -->

<svg
   width="100pt"
   height="100pt"
   viewBox="0 0 35.277779 35.277777"
   version="1.1"
   id="svg5"
   inkscape:version="1.1.2 (b8e25be833, 2022-02-05)"
   sodipodi:docname="viewlogAction.svg"
   xmlns:inkscape="http://www.inkscape.org/namespaces/inkscape"
   xmlns:sodipodi="http://sodipodi.sourceforge.net/DTD/sodipodi-0.dtd"
   xmlns="http://www.w3.org/2000/svg"
   xmlns:svg="http://www.w3.org/2000/svg">
  <sodipodi:namedview
     id="namedview7"
     pagecolor="#505050"
     bordercolor="#ffffff"
     borderopacity="1"
     inkscape:pageshadow="0"
     inkscape:pageopacity="0"
     inkscape:pagecheckerboard="1"
     inkscape:document-units="mm"
     showgrid="false"
     inkscape:zoom="1.8771861"
     inkscape:cx="-76.444207"
     inkscape:cy="74.047002"
     inkscape:window-width="2560"
     inkscape:window-height="1377"
     inkscape:window-x="-8"
     inkscape:window-y="-8"
     inkscape:window-maximized="1"
     inkscape:current-layer="layer1"
     units="pt" />
  <defs
     id="defs2" />
  <g
     inkscape:label="Layer 1"
     inkscape:groupmode="layer"
     id="layer1">
    <path
       style="fill:#f0f0f0;fill-opacity:1;stroke-width:0.0656061"
       d="M 8.7542546,32.23928 C 8.0586389,32.088333 7.4140683,31.729239 6.8871774,31.19912 6.3507449,30.6594 6.0496589,30.133449 5.8659698,29.415238 5.7393787,28.920266 5.7363683,28.647084 5.7363683,17.645226 c 0,-11.0018564 0.003,-11.2750354 0.1296015,-11.7700107 C 5.937251,5.5965102 6.0920923,5.1858492 6.2100643,4.9626356 6.5154079,4.3848916 7.2304215,3.687672 7.8200984,3.3926682 8.7615323,2.921688 8.2638659,2.9429935 17.840712,2.96368 c 0,0 8.420023,0.018564 8.59441,0.018564 0.174387,0 0.560484,0.1407065 0.560484,0.1407065 1.198562,0.4376843 1.982331,1.3809203 2.399618,2.6475565 0.109246,0.3316093 0.12065,0.7312273 0.140817,4.934051 0.01471,3.06537 -7.42e-4,20.587803 -0.04717,20.759848 -0.238199,0.884601 -1.626349,0.788328 -1.865982,-0.04885 C 27.560012,31.195902 27.484466,15.682533 27.452018,11.063458 27.419976,6.5020238 27.416038,6.3869045 27.282219,6.0978015 27.117184,5.741258 26.81091,5.4230003 26.443945,5.226722 L 26.172698,5.081642 17.745773,5.064262 C 8.208588,5.0445944 8.9218189,5.0062389 8.3590132,5.5690438 7.7898499,6.1382062 7.8357671,5.0784815 7.8357671,17.645226 c 0,12.52868 -0.04279,11.507353 0.505078,12.055223 0.5397478,0.539745 0.1662005,0.50432 5.7063519,0.541168 4.853121,0.03228 11.008322,0.03497 11.186543,0.168067 0.344246,0.257094 0.451654,0.466753 0.451654,0.881631 0,0.414891 -0.10742,0.624563 -0.451677,0.88163 -0.178829,0.133535 -6.317117,0.135417 -11.153741,0.147068 -4.005059,0.0097 -4.9771163,-0.0052 -5.3257214,-0.08073 z M 10.537405,21.734469 c -0.119809,-0.05947 -0.296947,-0.211844 -0.393637,-0.33861 -0.143594,-0.188262 -0.1757993,-0.29965 -0.1757993,-0.608019 0,-0.40789 0.1091753,-0.619411 0.4517073,-0.875145 0.178593,-0.133341 0.241317,-0.135267 4.403149,-0.135267 4.181069,0 4.223773,0.0013 4.407207,0.137247 0.644133,0.477269 0.644152,1.281944 3.8e-5,1.759301 -0.182758,0.135445 -0.239546,0.13745 -4.330007,0.152929 -3.737917,0.01415 -4.166206,0.0052 -4.362658,-0.09243 z m 0.14011,-5.539262 c -0.667732,-0.193205 -0.947856,-1.104388 -0.502303,-1.633896 0.352114,-0.418461 -0.127486,-0.393212 7.46868,-0.393212 7.550789,0 7.134551,-0.02059 7.440287,0.368088 0.194132,0.246802 0.274472,0.599963 0.205381,0.902847 -0.0721,0.316061 -0.413963,0.677751 -0.721306,0.763133 -0.302069,0.08391 -13.599685,0.07724 -13.890739,-0.0069 z M 10.459347,10.477752 C 9.9851276,10.155 9.8377698,9.7184107 10.031678,9.2106677 c 0.08023,-0.21007 0.192851,-0.350444 0.381127,-0.47504 l 0.267249,-0.1768576 h 3.449118 3.449113 l 0.241371,0.1500876 c 0.323929,0.201427 0.541942,0.649377 0.493138,1.013248 -0.04187,0.3121813 -0.199312,0.5481283 -0.504218,0.7556463 l -0.21689,0.147613 h -3.457725 -3.457723 z"
       id="path872"
       sodipodi:nodetypes="csssccsszssscsssscssssscsscsccsssscsscccsssssccssscccssscccs" />
  </g>
</svg>
